<?xml version="1.0" encoding="utf-8"?><svg xmlns="http://www.w3.org/2000/svg" xmlns:xlink="http://www.w3.org/1999/xlink"><symbol viewBox="0 0 22.3 18.9" id="2" xmlns="http://www.w3.org/2000/svg"><path d="M7.3 11.6c-.3-.7-.9-2-1.7-2.7-1.2-1-2.1-2.4-2.5-3.8 0-.5.3-1 1-1.2 0 0 .2 1 .7 1s.8-.2 1.4-.9c.6-.7.7-.8.7-.8s.5-.8 0-1.2S5.1.7 5.1.7 4.5.5 4.2.5s-.9 0-1.4.5C2.2 1.4 1 2.6 1 2.6s-.6.8-.6 1.9c0 1.2.4 4.8.4 4.8s.5 2.5 1.1 4.1c.6 1.6 1.9 3.3 3.1 4.3.4.4.9.7 1.1.7.6 0 1.4-.6 2.1-.6.7 0 2.1.6 3.4.6s5.3-.9 6.8-5.8c0 0 3.5-.8 3.5-4.5s-3.1-4.6-4.4-4.6-4.5.9-4.5 4.2v.6s-.7-.5-1.8-.5-3.4.7-3.6 3.7l-.3.1z"/></symbol><symbol id="3" viewBox="0 0 20.6 20.8" xml:space="preserve" xmlns="http://www.w3.org/2000/svg"><style>.bst0{fill:none;stroke:#000;stroke-width:.75;stroke-miterlimit:10}</style><circle class="bst0" cx="10.3" cy="10.4" r="9.8"/><path class="bst0" d="M4.1 12.8s2.4 3.3 6.1 3.3 5.9-3.3 5.9-3.3m-9.2-1.7S4.3 9.7 4.3 8.4c-.1-1.2 1.4-2.1 2.6-.6"/><path class="bst0" d="M6.5 11.1s2.6-1.4 2.6-2.7c.1-1.2-1.4-2.1-2.6-.7"/><path d="M6.6 8l.1.1.1-.1v-.2l-.2.1z"/><path class="bst0" d="M13.7 11.1s-2.6-1.4-2.6-2.7c-.1-1.2 1.4-2.1 2.6-.7"/><path class="bst0" d="M13.3 11.1s2.6-1.4 2.6-2.7c.1-1.2-1.4-2.1-2.6-.7"/><path d="M13.4 8l.1.1.1-.1v-.2l-.2.1z"/></symbol><symbol id="4" viewBox="0 0 15.2 15.2" xml:space="preserve" xmlns="http://www.w3.org/2000/svg"><style>.cst0{fill:none;stroke:#000;stroke-width:.5;stroke-miterlimit:10}</style><g id="cлинейка"><path class="cst0" d="M10 3.8S10.3.4 6.2.4H3.7S1 .4.4 2.6v6.1c0 .4.6 2.4 3.5 2.4"/><path class="cst0" d="M14.7 6.8v6.3c0 1.7-1.6 1.6-1.6 1.6H6.7c-1.4 0-1.5-.8-1.5-.8v-3.4c0-1.7 1.2-1.6 1.2-1.6h6.2c1.5 0 2.1-.7 2.1-2.1s-1.4-1.7-1.4-1.7H4C2.1 5.1.8 3.7.8 3.7l-.4-.5m8.5 7.6V9m3.6 1.8V8.9"/><ellipse cx="5.2" cy="2.9" rx="1" ry=".4"/></g></symbol><symbol id="5" viewBox="0 0 16 15.2" xml:space="preserve" xmlns="http://www.w3.org/2000/svg"><style>.dst0{fill:none;stroke:#000;stroke-width:.5;stroke-miterlimit:10}</style><g id="dлистья"><path class="dst0" d="M2.4 14.9S5.3 9 12.3 9.6m-8 2.7s-.8-5.4 5.1-5.5c4.5.3 6.1 2.7 6.1 2.7s-2 4.3-7 4.8c-1.6.1-3.6-1-3.6-1m-2.1-1.2s-.1-2.2-.4-3.2-.4-3.6.3-5.1"/><path class="dst0" d="M2.3 9.4s-2-1-1.8-3.8S3 .6 3 .6s4.1 3.7.6 7.9"/></g></symbol><symbol id="6" viewBox="0 0 18.2 14.8" xml:space="preserve" xmlns="http://www.w3.org/2000/svg"><style>.est0,.est1{fill:none;stroke:#000;stroke-width:.5;stroke-miterlimit:10}.est1{fill:#fff}</style><g id="eдоставка"><path class="est0" d="M1.9 12h8.3c.4 0 .8-.3.8-.8V3c0-.4-.3-.8-.8-.8H1.9c-.5 0-.8.4-.8.8v8.3c0 .4.3.7.8.7z"/><path class="est0" d="M11.2 3.8h3.6s.4 0 .9.5c.2.2.4.5.7.9.5.7 1.1 1.4 1.1 1.4s.4.4.4 1.1v3.5s.1.8-1.1.8h-6.3"/><circle class="est1" cx="4.7" cy="12.4" r="1.9"/><circle class="est1" cx="14.1" cy="12.4" r="1.9"/><circle class="est1" cx="4" cy="4.2" r="3.7"/><path class="est0" d="M2.7 5.5l1.4-1.1V1.9"/><circle cx="4" cy="4.4" r=".5"/><path class="est0" d="M17.7 8.1h-4s-.6-.1-.6-.8V5.8s0-.5.7-.5h2.5"/></g></symbol><symbol viewBox="0 0 36.7 36.7" id="f" xmlns="http://www.w3.org/2000/svg"><path d="M36.7 34.7c0 1.1-.9 2-2 2h-9.4V22.5h4.8l.7-5.5h-5.5v-3.5c0-1.6.4-2.7 2.7-2.7h2.9v-5c-.5-.1-2.2-.2-4.3-.2-4.2 0-7.1 2.6-7.1 7.3V17h-4.8v5.5h4.8v14.2H2c-1.1 0-2-.9-2-2V2C0 .9.9 0 2 0h32.7c1.1 0 2 .9 2 2v32.7z"/></symbol><symbol viewBox="0 0 36.7 36.7" id="in" xmlns="http://www.w3.org/2000/svg"><path d="M32.3 0H4.4C2 0 0 1.9 0 4.3v28.1c0 2.4 2 4.3 4.4 4.3h27.9c2.4 0 4.4-1.9 4.4-4.3V4.3c0-2.4-2-4.3-4.4-4.3m-5.9 5.7c0-.6.5-1.1 1.1-1.1H31c.6 0 1.1.5 1.1 1.1v3.4c0 .6-.5 1.1-1.1 1.1h-3.4c-.6 0-1.1-.5-1.1-1.1l-.1-3.4zm-8 5.6c3.9 0 7.1 3.1 7.1 7s-3.2 7-7.1 7-7.1-3.1-7.1-7c0-3.8 3.2-7 7.1-7m14.8 20.8c0 .6-.5 1.1-1.1 1.1H4.6c-.6 0-1.1-.5-1.1-1.1V14.9H8c-.6.9-.8 2.5-.8 3.5 0 6.1 5 11.1 11.2 11.1s11.2-5 11.2-11.1c0-1-.1-2.6-.9-3.5h4.6l-.1 17.2z"/></symbol><symbol id="man" viewBox="0 0 18.8 20" xml:space="preserve" xmlns="http://www.w3.org/2000/svg"><style>.hst0{fill:none;stroke:#000;stroke-width:.75;stroke-miterlimit:10}</style><ellipse id="h_x33_" transform="matrix(.9981 -.06105 .06105 .9981 -.2 .565)" class="hst0" cx="9.2" cy="3.6" rx="2.7" ry="3.1"/><path id="h_x32_" class="hst0" d="M4.8 18.5s-.1-3.4.2-4.9c.2-1.5 1-2.4.7-3.3 0 0-.8-1.2-1.4-1.8S1.2 4.8 1.2 4.8s-.5-.7 0-1.1c.5-.3 1.1-.3 1.3-.1.2.2 2.2 2.3 2.2 2.3s2 2.1 4 2.1 3-.6 3.3-.8c.2-.2 1.2-.8 1.7-1.2l2.5-2s.7-.7 1.1-.5c0 0 .5.1.7.5.2.4-.6 1.2-.6 1.2l-2.2 2.2s-2.3 2.6-2.4 4.3c0 0-.2 1.8.2 3.6s1 3.1 1 3.1"/><g id="h_x31__1_"><path id="h_x34_" d="M17.1 5.4l-.5.5c.9 1.4 1.4 3 1.4 4.6 0 2.4-1 4.4-2.5 6l.5.5c1.7-1.7 2.8-4.1 2.8-6.6-.2-1.7-.8-3.5-1.7-5z"/><path id="h_x33__1_" d="M11.5 2.3c1.6.4 3 1.2 4 2.3l.5-.5c-1.3-1.4-3.1-2.3-5-2.7l.5.9z"/><path id="h_x32__1_" d="M7.1 1.6C5.5 2 4 2.9 2.9 4l.5.5c.9-.9 2.1-1.6 3.4-2.1l.3-.8z"/><path id="h_x31__2_" d="M14.1 17.8c-1.4.9-3 1.5-4.7 1.5-4.7 0-8.6-3.9-8.6-8.6C.8 9 1.3 7.5 2 6.1l-.5-.6C.6 7 0 8.7 0 10.5c0 5.1 4.1 9.3 9.3 9.3 1.9 0 3.6-.6 5-1.5l-.2-.5z"/></g></symbol><symbol viewBox="0 0 36.7 36.7" id="tv" xmlns="http://www.w3.org/2000/svg"><path d="M35.7 3.7c-1.5.9-3.1 1.5-4.8 1.9-1.4-1.5-3.3-2.4-5.5-2.4-4.2 0-7.5 3.5-7.5 7.7 0 .6.1 1.2.2 1.8-6.3-.4-11.8-3.5-15.5-8.2-.6 1.1-1 2.5-1 3.9 0 2.7 1.3 5 3.4 6.4-1.2 0-2.4-.4-3.4-1v.2c0 3.7 2.6 6.9 6 7.6-.6.2-1.3.3-2 .3-.5 0-1 0-1.4-.1 1 3.1 3.7 5.3 7 5.4-2.6 2.1-5.8 3.3-9.4 3.3-.6 0-1.2 0-1.8-.1 3.3 2.2 7.3 3.5 11.5 3.5 13.9 0 21.4-11.8 21.4-22v-1c1.5-1.1 2.8-2.4 3.8-4-1.3.6-2.8 1-4.3 1.2 1.5-1.1 2.7-2.6 3.3-4.4"/></symbol><symbol viewBox="0 0 36.7 36.7" id="vk" xmlns="http://www.w3.org/2000/svg"><path d="M36.5 26.8c0-.1-.1-.2-.1-.2-.6-1.1-1.9-2.6-3.7-4.2-.8-.8-1.3-1.3-1.5-1.6-.4-.5-.5-1-.3-1.5.2-.4.7-1.2 1.7-2.5.5-.7.9-1.2 1.2-1.6 2.2-2.9 3.2-4.8 2.9-5.6l-.1-.2c-.1-.3-.3-.4-.6-.5-.3-.1-.7-.1-1.2 0h-5.9c-.2 0-.2.1-.2.1h-.1l-.1.1c-.1 0-.1.1-.2.2s-.1.2-.2.3c-.6 1.5-1.3 3-2 4.3-.5.8-.9 1.5-1.3 2.1-.4.6-.7 1-1 1.3l-.7.7c-.2.2-.4.2-.5.2-.1 0-.2-.1-.3-.1-.2-.1-.3-.3-.4-.5-.1-.2-.2-.4-.2-.7 0-.3-.1-.6-.1-.8V10.4c0-.4 0-.7-.1-.9 0-.2-.1-.4-.2-.6-.1-.2-.2-.4-.4-.5l-.6-.3c-.7-.2-1.5-.2-2.6-.2-2.4 0-3.9.1-4.6.5-.3.1-.5.3-.7.6-.2.3-.3.4-.1.5.8.1 1.3.4 1.6.8l.1.2c.1.2.2.5.3.9.1.4.1.9.2 1.4.1.9.1 1.7 0 2.4s-.1 1.2-.2 1.5c-.1.4-.1.7-.3.9l-.2.4c0 .1-.1.1-.1.1-.2.1-.3.1-.5.1s-.4-.1-.6-.3c-.3-.2-.5-.4-.8-.7-.3-.3-.6-.7-.9-1.3-.3-.6-.7-1.2-1.1-2l-.3-.6c-.2-.4-.5-.9-.8-1.6-.3-.7-.6-1.3-.9-2-.1-.2-.3-.4-.5-.6h-.1C7.1 9 7 9 6.9 8.9c-.1 0-.3-.1-.4-.1H1.3c-.6 0-1 .2-1.2.4v.1c-.1.1-.1.2-.1.3 0 .1 0 .3.1.5.8 1.8 1.6 3.5 2.5 5.2.9 1.7 1.7 3 2.3 4 .7 1 1.3 2 2 2.9.7.9 1.1 1.5 1.4 1.7.2.3.4.4.5.6l.5.5c.3.3.8.7 1.3 1.1.6.4 1.2.8 2 1.3.7.4 1.6.8 2.5 1 1 .3 1.9.4 2.8.3h2.2c.4 0 .8-.2 1-.4l.1-.1c.1-.1.1-.2.1-.4s.1-.3.1-.5c0-.5 0-1 .1-1.5.1-.4.2-.8.3-1 .1-.2.3-.4.4-.6.2-.2.3-.2.3-.3.1 0 .1-.1.2-.1.3-.1.7 0 1.1.3.4.3.8.7 1.2 1.1.4.4.8.9 1.3 1.5.5.5 1 1 1.3 1.2l.4.2c.3.2.6.3 1 .4.4.1.8.2 1.1.1l4.9-.1c.5 0 .9-.1 1.1-.2.3-.2.4-.3.5-.5.1-.2.1-.4 0-.7 0 0 0-.2-.1-.3zm0 0"/></symbol></svg>